<svg xmlns="http://www.w3.org/2000/svg"><style>:root svg:not(:target){display:none}</style><svg fill="none" id="cat-pro-tablet" viewBox="0 0 268 112"><path d="M246.236 11.514a30.402 30.402 0 0 1 9-9.2c2-1.4 3.2-1.4 4.4 1.2 1.6 3.8 3 7.8 1.8 12a4.59 4.59 0 0 0 .8 4.2c1.2 1.6 2.2 3.2 3.2 4.6a12.541 12.541 0 0 1 1.8 12.4 10.865 10.865 0 0 0-.4 6.2c.4 1.98.4 4.02 0 6a7.494 7.494 0 0 1-5.4 6.4 10.422 10.422 0 0 0-6.4 4 2.099 2.099 0 0 1-1.8 1c-2.4.4-8.4-5-8.4-7.4v-1.2c.2-7.2-.2-7.8-6.8-10.8a8.783 8.783 0 0 1-3.6-2.4c-1.2-1.6-2.8-1.4-4.6-.8-1.8.6-2.8 1.8-2.6 3.8.604 4.841.804 9.725.6 14.6.014.556.15 1.103.4 1.6 6.2 9 8.6 19.6 11.6 29.8 2.4 7.8 6.8 12 14.8 12.6 1.281.102 2.551.302 3.8.6a8.318 8.318 0 0 1 6.8 6.4c1.4 4.2.6 5.2-3.6 5.2h-13a6.481 6.481 0 0 1-4.6-1.6 23.39 23.39 0 0 0-6.8-4 14.53 14.53 0 0 1-6.8-5.2 57.165 57.165 0 0 0-8-9c-5.6-5.8-11.6-11.4-16.8-17.4a22.767 22.767 0 0 1-6.4-15.2c0-1.8-.4-2.6-2.4-1.8-.598.38-1.29.587-2 .6-5.6 0-8.4 3.4-10.4 8.4-1.8 4.2-4.2 8.2-6.4 12.4a20.802 20.802 0 0 0-2 8.4c0 4.8 1.2 6.4 5.6 8 2.8 1 5.4 2 6.8 4.8 1.6 3.2 1.2 4-2.2 4.2h-13.6a3.762 3.762 0 0 1-3.8-2.2l-3.6-6a12.1 12.1 0 0 1-1.4-10.8c.866-3.473.934-7.097.2-10.6a16.841 16.841 0 0 1 3.4-14c1.2-1.4 1.2-2-.8-2.4a100.13 100.13 0 0 1-23.6-8.2.2.2 0 0 1-.2-.2c-6.4-2.4-7.6-2-9.4 4.6-1.6 5.6-3.2 11.2-4.4 17-1.4 6.4.2 12.4 2.2 18.4.8 2.4 3.2 2.2 5 2.8 4 1.2 7.4 2.8 9 7 1.4 3.2 1.2 3.6-2.2 3.6-3.4 0-6.8-.2-10.4 0a13.288 13.288 0 0 1-8.4-2.8c-9.6-6.4-12.4-16.2-13.2-26.8-.4-6.6-4-11.8-8.2-16.8-.8-1-1.6-1.4-2.8-.6a88.615 88.615 0 0 1-13.4 6 53.42 53.42 0 0 0-24.4 17.6 21.26 21.26 0 0 0-4.4 10.2c-.6 3.6.4 5.2 4 6.2s5.4 3 5.8 6.8c.2 1.6-.4 2.4-2 2.4h-16.2a3.301 3.301 0 0 1-2.6-1.6 17.122 17.122 0 0 1-3.8-11 101.19 101.19 0 0 1 1.8-20.6 12.6 12.6 0 0 1 6.8-9.6c11.8-5.6 18-16.2 23.6-27.2 1.2-2.2.2-2.6-1.8-2.4a32.94 32.94 0 0 0-15.4 6.4 141.23 141.23 0 0 0-16.6 14.2 33.34 33.34 0 0 1-20.6 9.8c-14.6.8-21.4-7.4-20.8-20.6a19.38 19.38 0 0 1 4.8-12.2 8.5 8.5 0 0 1 9-3c3 .8 3.8 2.4 2.6 5.4-.6 1.2-1.4 2.2-2 3.4a14.998 14.998 0 0 0-2 4c-2.2 6 .8 10.2 7 10.8 6.6.6 12-2.2 17-6.2a89.88 89.88 0 0 0 16-16.6 41.579 41.579 0 0 1 28.8-16.2c4.6-.6 8.6-2.6 13-3.8a83.015 83.015 0 0 1 25.4-3.6 25.996 25.996 0 0 0 11.6-2.2c9.8-4 20-4 30.2-2 8 1.6 16 3.6 23.8 5.6a33.16 33.16 0 0 0 14-.4 135.592 135.592 0 0 1 26.8-4 36.318 36.318 0 0 1 17.2 3.4c4 1.8 4 1.8 3 5.6Z" fill="#000"></path></svg><svg fill="none" id="cat-slim-mobile" viewBox="0 0 36 50"><g clip-path="url(#cat-slim-mobile_0)"><path d="M28.203 0h-.195c-.33.187-.593.474-.75.82a8.028 8.028 0 0 0-.664 1.757.84.84 0 0 1-.761.691 3.77 3.77 0 0 0-2.69 1.948c-.372.661-.69 1.35-.952 2.062-.73 1.897-1.29 3.856-1.98 5.768-.324.872-.339.872-1.316.872-1.168 0-1.085-.18-1.1 1.108 0 .407.123.613.555.593.133 0 .334-.067.385.108.052.175-.123.252-.226.355a4.626 4.626 0 0 1-2.227 1.258c-.977.263-1.975.47-2.926.789-2.443.82-4.7 1.964-6.46 3.902a14.44 14.44 0 0 0-2.437 4.041C2.57 30.526 1.656 35.217.946 39.954a97.064 97.064 0 0 0-.75 6.7C.102 47.759 0 48.877 0 50h17.141a1.126 1.126 0 0 0-.118-.66 2.577 2.577 0 0 0-1.97-1.582c-.36-.083-.401-.191-.18-.475.36-.482.637-1.022.818-1.597.838-2.48 1.162-5.067 1.568-7.63.23-1.956.83-3.85 1.77-5.582a11.126 11.126 0 0 1 2.874-3.283c.427-.325.443-.325.515.227.051.366.061.742.087 1.113a48.166 48.166 0 0 1-.092 7.31 31.866 31.866 0 0 0-.078 5.67A38.826 38.826 0 0 0 23.503 50h6.84a2.79 2.79 0 0 0-2.18-2.289 4.62 4.62 0 0 0-1.934.103c-.309.073-.438 0-.463-.335a29.113 29.113 0 0 1 .514-8.154 91.803 91.803 0 0 0 1.574-9.371 9.163 9.163 0 0 1 1.172-3.609c.612-1.092 1.147-2.226 1.749-3.324a3.031 3.031 0 0 0 .216-2.676c-.139-.366-.273-.737-.442-1.087-.515-1.005-1.029-2-1.502-3.016-.252-.515-.196-.577.365-.593.838 0 .838 0 .854-.845v-.34c0-.356-.134-.552-.515-.516h-.781c-.355 0-.458-.149-.37-.515a3.217 3.217 0 0 1 2.638-2.284 11.291 11.291 0 0 1 3.404.222.513.513 0 0 0 .643-.33c.206-.515.432-1.03.664-1.546a.517.517 0 0 0-.052-.588c-1.646-2.093-3.43-4.046-5.863-5.299a.767.767 0 0 1-.452-.577 10.123 10.123 0 0 0-.653-2.144A1.803 1.803 0 0 0 28.203 0Z" fill="#000"></path></g><defs><clipPath id="cat-slim-mobile_0"><path fill="#fff" d="M0 0h36v50H0z"></path></clipPath></defs></svg><svg fill="none" id="checkbox-tick" viewBox="0 0 19 15"><path d="M7 11.718 1.3 5.27.25 6.457 7 14.094 18.25 1.366 17.2.094 7 11.718Z" fill="#68B738"></path></svg><svg fill="none" id="email" viewBox="0 0 20 20"><path d="M1.5 8.5v8h17v-8m-17-5h17v2l-8.5 6-8.5-6v-2Z" stroke="#000" stroke-linecap="round" stroke-linejoin="round"></path></svg><svg fill="none" id="gift-icon" viewBox="0 0 78 81"><path d="M64.016 35.633H14.03c-1.754 0-3.182-1.419-3.182-3.162v-9.472c0-1.744 1.428-3.162 3.182-3.162h49.984c1.754 0 3.18 1.418 3.18 3.162v9.473c0 1.742-1.426 3.16-3.18 3.16ZM14.03 22.26a.752.752 0 0 0-.744.739v9.473c0 .407.334.738.744.738h49.984c.41 0 .743-.331.743-.739V23c0-.401-.34-.74-.743-.74H14.03Z" fill="#fff"></path><path d="M57.045 68.082H20.999c-3.377 0-6.125-2.73-6.125-6.089V34.421c0-.669.546-1.212 1.219-1.212s1.219.543 1.219 1.212v27.572c0 2.022 1.654 3.666 3.687 3.666h36.046c2.032 0 3.686-1.644 3.686-3.666V34.421c0-.669.546-1.212 1.219-1.212.672 0 1.218.543 1.218 1.212v27.572c0 3.358-2.747 6.09-6.123 6.09Z" fill="#fff"></path><path d="M39.023 68.082a1.215 1.215 0 0 1-1.22-1.211V34.42c0-.669.547-1.212 1.22-1.212.672 0 1.218.543 1.218 1.212V66.87c0 .67-.545 1.212-1.218 1.212ZM23.811 22.256c-3.814-2.055-5.238-6.812-3.173-10.605 2.064-3.79 6.848-5.206 10.665-3.155 5.814 3.13 8.954 11.865 9.084 12.235l-2.3.804c-.029-.083-2.961-8.225-7.944-10.908-2.635-1.416-5.937-.439-7.36 2.178-1.426 2.619-.444 5.902 2.19 7.32l-1.162 2.13Z" fill="#fff"></path><path d="m54.231 22.256-1.16-2.132a5.377 5.377 0 0 0 2.622-3.208 5.332 5.332 0 0 0-.431-4.11 5.382 5.382 0 0 0-3.226-2.605 5.423 5.423 0 0 0-4.134.426c-4.982 2.682-7.915 10.825-7.944 10.907l-2.3-.804c.131-.37 3.27-9.104 9.084-12.234a7.856 7.856 0 0 1 5.99-.618 7.8 7.8 0 0 1 4.674 3.773 7.726 7.726 0 0 1 .623 5.955 7.79 7.79 0 0 1-3.798 4.65ZM61.95 51.857H16.093a1.215 1.215 0 0 1-1.219-1.211c0-.669.546-1.211 1.219-1.211H61.95c.672 0 1.218.542 1.218 1.21 0 .67-.545 1.212-1.218 1.212Z" fill="#fff"></path></svg><svg fill="none" id="icon-arrow" viewBox="0 0 32 12"><path stroke="#000" stroke-width="2" d="M0 6h26"></path><path d="m32 6-6.75 5.196V.804L32 6Z" fill="#000"></path></svg><svg fill="none" id="products-consistency-icon" viewBox="0 0 27 29"><path d="M11.375 0c-1.631 0-2.9 1.36-2.9 3.081 0 1.722 1.269 3.081 2.9 3.081s2.9-1.359 2.9-3.08c0-1.723-1.269-3.082-2.9-3.082Zm0 1.178c.997 0 1.722.843 1.722 1.903 0 .997-.789 1.903-1.722 1.903-.997 0-1.722-.842-1.722-1.903 0-.997.78-1.903 1.722-1.903ZM.5 24.741c0 1.178.408 2.175 1.36 2.99.996.852 2.174.78 2.174.78h19.032c.779 0 1.812-.381 2.628-1.45.843-.997.788-2.357.788-2.357V7.486c0-.435-.109-.598-.743-.598s-.689.271-.689.589v17.218c-.018.3-.072 1.088-.743 1.722-.734.625-1.45.544-1.45.544s-18.125 0-19.031-.027c-.344-.064-.906-.19-1.45-.907-.508-.725-.408-1.63-.408-1.63V7.176c0-.462-.236-.634-.725-.634-.49 0-.743.172-.743.58v17.618ZM16.813 8.428c-1.088.236-2.175.38-4.26 2.356-2.084 1.994-3.625 1.903-5.166 1.813-1.54-.09-3.171-1.54-3.443-1.903-.336-.354-.906-.118-1.088.118-.154.235-.154.643.109.996 1.269 1.179 2.447 2.085 4.713 2.266 2.265.218 4.44-.806 5.89-2.266 1.45-1.45 2.175-1.721 3.263-1.903 2.628-.417 4.168.617 5.075 1.27.997 1.087 1.268.778 1.54.47.544-.716-.226-1.268-1.087-1.903-1.813-1.178-3.535-1.631-5.528-1.269l-.018-.045Zm-9.063 7.16c-1.178 0-2.084.996-2.084 2.265 0 1.269.906 2.266 2.084 2.266s2.084-.997 2.084-2.266c0-1.269-.906-2.266-2.084-2.266Zm11.781.779c-1.54 0-2.81 1.36-2.81 2.99 0 1.632 1.27 2.991 2.81 2.991s2.81-1.36 2.81-2.99c0-1.632-1.27-2.991-2.81-2.991Zm0 1.45c.798 0 1.45.698 1.45 1.54 0 .861-.652 1.541-1.45 1.541-.797 0-1.45-.698-1.45-1.54 0-.861.653-1.541 1.45-1.541Z" fill="#fff"></path></svg><svg fill="none" id="products-ingredient-icon" viewBox="0 0 25 28"><path d="M24.844.767c-.1-.45-.48-.767-.912-.767h-.005C18.989.033 6.982.916 2.134 8.38c-2.518 3.878-2.735 8.913-.644 14.965.016.047.048.079.07.122C.813 25.44.523 26.753.516 26.79c-.11.54.214 1.072.72 1.188a.88.88 0 0 0 .197.022c.433 0 .822-.321.916-.79.02-.102 2.409-10.373 10.854-16.378.431-.306.547-.927.26-1.387-.288-.46-.87-.585-1.3-.277-4.79 3.405-7.739 8.008-9.473 11.656-1.242-4.578-.916-8.377.986-11.305 3.743-5.764 12.622-7.154 17.982-7.448C20.505 3.872 19.245 7.174 19.245 13c0 3.12-.83 5.522-2.465 7.14-2.62 2.591-6.88 2.834-9.993 2.584-.518-.045-.967.371-1.006.922-.04.55.347 1.03.863 1.072.623.051 1.29.082 1.981.082 3.17 0 6.87-.663 9.43-3.194 2.034-2.011 3.065-4.906 3.065-8.605 0-9.099 3.216-11.096 3.232-11.105.39-.209.594-.677.492-1.129Z" fill="#fff"></path></svg><svg fill="none" id="products-result-icon" viewBox="0 0 27 31"><path d="M6.12 0c-1.066 0-1.066 1.583 0 1.583h6.668v1.604C5.96 3.62.563 9.414.563 16.485c0 4.01 1.75 7.63 4.512 10.069.48.422.544 1.171.107 1.636L3.646 29.74c-.747.686.362 1.752 1.034 1.003l2.006-2.037a1.164 1.164 0 0 1 1.312-.211 12.785 12.785 0 0 0 11.105.063c.427-.211.96-.127 1.301.211l1.942 1.974c.683.633 1.664-.317 1.046-1.003l-1.451-1.477c-.448-.454-.384-1.203.106-1.636a13.467 13.467 0 0 0 3.415-4.583 13.335 13.335 0 0 0 1.194-5.57c0-7.071-5.43-12.876-12.268-13.288V1.583h6.667c1.067 0 1.067-1.583 0-1.583H6.121ZM2.004 16.475c0-6.533 5.195-11.82 11.606-11.82 6.4 0 11.596 5.287 11.596 11.82 0 6.543-5.195 11.841-11.596 11.841-6.4 0-11.606-5.298-11.606-11.841ZM12.799 8.38c0-1.098 1.664-1.098 1.664 0v8.633a.84.84 0 0 1-.25.597.858.858 0 0 1-.604.247.816.816 0 0 1-.57-.23.798.798 0 0 1-.24-.561V8.38Zm-4.993 2.617c.308 0 .604-.12.822-.337a1.144 1.144 0 0 0 0-1.627 1.17 1.17 0 0 0-.822-.336c-.288.027-.555.16-.75.371a1.144 1.144 0 0 0 0 1.547c.195.212.462.344.75.372v.01Zm11.596 0c.308 0 .604-.12.822-.337a1.144 1.144 0 0 0 0-1.627 1.17 1.17 0 0 0-.822-.336c-.288.027-.555.16-.75.371a1.144 1.144 0 0 0 0 1.547c.195.212.462.344.75.372v.01ZM8.969 23.588c0 1.53-2.326 1.53-2.326 0s2.326-1.53 2.326 0Zm4.64 3.44a1.176 1.176 0 0 0 .893-.293 1.153 1.153 0 0 0 .381-.851 1.14 1.14 0 0 0-.38-.852 1.167 1.167 0 0 0-.894-.293c-.287.027-.555.16-.75.371a1.143 1.143 0 0 0 0 1.547c.195.212.463.344.75.372ZM5.491 16.645a1.139 1.139 0 0 1-.297.883 1.162 1.162 0 0 1-.86.377 1.173 1.173 0 0 1-.86-.377 1.148 1.148 0 0 1-.298-.883c.028-.285.162-.55.376-.742a1.17 1.17 0 0 1 1.564 0c.214.193.348.457.375.742Zm17.388 1.15a1.173 1.173 0 0 0 .894-.294 1.152 1.152 0 0 0 .38-.851 1.14 1.14 0 0 0-.38-.852 1.164 1.164 0 0 0-.894-.293c-.287.027-.555.16-.749.371a1.144 1.144 0 0 0 0 1.547c.195.212.462.345.75.372Zm-2.314 5.805c0 1.52-2.326 1.52-2.326-.01 0-1.531 2.326-1.531 2.326 0v.01Z" fill="#fff"></path></svg><svg fill="none" id="products-usage" viewBox="0 0 26 30"><path fill-rule="evenodd" clip-rule="evenodd" d="M19.117.076a1 1 0 0 1 1.09.217c.909.908 2.097 2.878 3.059 5.918C24.237 9.28 25 13.508 25 19a1 1 0 0 1-1 1h-3.5v9a1 1 0 1 1-2 0V1a1 1 0 0 1 .617-.924ZM20.5 18h2.491c-.086-4.816-.786-8.512-1.632-11.186-.278-.88-.57-1.643-.859-2.295V18ZM6.5 0a1 1 0 0 1 1 1v28a1 1 0 1 1-2 0V1a1 1 0 0 1 1-1Z" fill="#fff"></path><path fill-rule="evenodd" clip-rule="evenodd" d="M2 0a1 1 0 0 1 1 1v5.5c0 .557.192 1.315.7 1.917.48.566 1.314 1.083 2.8 1.083a1 1 0 1 1 0 2c-2.015 0-3.43-.733-4.326-1.792A5.068 5.068 0 0 1 1 6.5V1a1 1 0 0 1 1-1Z" fill="#fff"></path><path fill-rule="evenodd" clip-rule="evenodd" d="M11 0a1 1 0 0 0-1 1v5.5a3.07 3.07 0 0 1-.7 1.917C8.82 8.983 7.984 9.5 6.5 9.5a1 1 0 0 0 0 2c2.014 0 3.43-.733 4.326-1.792A5.068 5.068 0 0 0 12 6.5V1a1 1 0 0 0-1-1Z" fill="#fff"></path></svg><svg fill="none" id="telegram" viewBox="0 0 28 22"><path fill-rule="evenodd" clip-rule="evenodd" d="M23.46 3.153c.18.15.265.382.227.611l-2.626 15.757a.657.657 0 0 1-1.012.439l-7.878-5.253a.657.657 0 0 1-.149-.956l2.611-3.263-4.36 2.906a.657.657 0 0 1-.658.041L4.363 10.81a.657.657 0 0 1 .073-1.205l18.383-6.566a.657.657 0 0 1 .642.115Zm-17.134 7.17 3.536 1.768 7.561-5.041a.656.656 0 0 1 .877.956l-4.805 6.006 6.438 4.292L22.208 4.65 6.326 10.323Z" fill="#666"></path></svg><svg fill="none" id="triangles-slider" viewBox="0 0 24 18"><path d="M8 0 0 9l8 9V0ZM24 9l-8-9v18l8-9Z" fill="#666"></path></svg><svg fill="none" id="vkontakte" viewBox="0 0 28 22"><path d="M1 5.339c0-.855.515-1.316 1.545-1.383l3.97.025a.52.52 0 0 1 .533.377c.409 1.257.866 2.343 1.372 3.257.506.913 1.168 1.965 1.985 3.156.071.15.187.226.346.226.125 0 .223-.059.293-.176l.08-.277.027-4.35c0-.302-.075-.503-.226-.604-.151-.1-.431-.176-.84-.226-.32-.05-.48-.235-.48-.553 0-.067.01-.118.027-.151.373-1.09 1.44-1.635 3.198-1.635L14.322 3c.675 0 1.234.16 1.678.478.444.318.666.821.666 1.509v5.708c.125.084.24.126.347.126.266 0 .497-.15.692-.453 1.954-2.582 3.011-4.308 3.17-5.18 0-.017.019-.059.054-.126.125-.251.329-.47.613-.654.284-.184.533-.31.746-.377a.554.554 0 0 1 .24-.05h4.13l.266.025c.355 0 .63.16.826.478.07.1.12.21.146.327.027.117.045.234.054.352.009.117.013.184.013.2v.177c-.124.687-.44 1.42-.946 2.2-.506.78-1.15 1.622-1.931 2.528-.782.905-1.27 1.5-1.466 1.785-.16.201-.24.386-.24.553 0 .135.071.286.213.453l3.89 4.627c.213.269.32.562.32.88 0 .386-.16.705-.48.956-.32.252-.701.394-1.145.428l-.453.025h-4.05a.855.855 0 0 0-.106.012.862.862 0 0 1-.107.013c-.39 0-.755-.16-1.092-.478-.125-.134-.96-1.123-2.505-2.967a1.387 1.387 0 0 0-.373-.327c-.07.268-.164.654-.28 1.157-.115.503-.2.863-.253 1.081l-.08.427c-.177.587-.55.94-1.119 1.057l-.373.025h-2.61c-1.475 0-2.945-.637-4.41-1.911-1.466-1.275-2.784-2.922-3.957-4.942-1.172-2.02-2.264-4.372-3.277-7.054A1.916 1.916 0 0 1 1 5.338Zm16.013 6.513c-.373 0-.71-.096-1.013-.29-.302-.192-.453-.456-.453-.791V4.987c0-.336-.089-.575-.266-.717-.178-.143-.489-.214-.933-.214l-1.518.05c-.764 0-1.341.126-1.732.378.781.352 1.172.922 1.172 1.71v4.426a1.5 1.5 0 0 1-.533 1.044 1.59 1.59 0 0 1-1.066.414c-.532 0-.94-.243-1.225-.729C8.06 9.371 7.03 7.493 6.356 5.716l-.24-.654-3.544-.025c-.231 0-.36.013-.386.038-.027.025-.04.096-.04.213 0 .151.017.31.053.478l.56 1.409c1.491 3.638 3.112 6.505 4.862 8.6 1.75 2.096 3.468 3.144 5.155 3.144h2.665c.106 0 .186-.03.24-.088.053-.06.097-.172.133-.34l.053-.251.506-2.213c.142-.302.267-.503.373-.604a.975.975 0 0 1 .693-.277c.426 0 .861.243 1.305.73l2.265 2.716c.142.218.293.327.453.327h4.396c.533 0 .8-.126.8-.378a.466.466 0 0 0-.08-.251l-3.864-4.552c-.302-.352-.453-.73-.453-1.131 0-.403.142-.788.427-1.157.23-.336.679-.893 1.345-1.673a37.63 37.63 0 0 0 1.745-2.187c.498-.68.826-1.296.986-1.849l.08-.327a.371.371 0 0 1-.027-.163.574.574 0 0 0-.026-.189h-4.183c-.267.1-.48.252-.64.453l-.16.478c-.444 1.156-1.607 2.942-3.49 5.356a1.892 1.892 0 0 1-1.305.503Z" fill="#666"></path></svg><svg fill="none" id="youtube" viewBox="0 0 28 22"><path d="m17.85 10.793-5.236-3.491a.655.655 0 0 0-1.014.545v6.982a.654.654 0 0 0 1.014.546l5.237-3.491a.655.655 0 0 0 0-1.091Zm-4.94 2.814V9.07l3.403 2.27-3.404 2.268Zm12.48-8.563a2.4 2.4 0 0 0-1.452-1.637C20.218 1.978 14.251 2 14 2c-.25 0-6.218-.022-9.938 1.407A2.4 2.4 0 0 0 2.61 5.044C2.327 6.113 2 8.076 2 11.338c0 3.262.327 5.226.61 6.295a2.4 2.4 0 0 0 1.452 1.636c3.72 1.43 9.687 1.407 9.938 1.407h.076c.753 0 6.317-.043 9.862-1.407a2.4 2.4 0 0 0 1.451-1.636c.284-1.07.611-3.033.611-6.295s-.327-5.225-.61-6.294Zm-1.266 12.261a1.09 1.09 0 0 1-.655.742c-3.49 1.342-9.404 1.32-9.469 1.32-.066 0-5.978.022-9.47-1.32a1.09 1.09 0 0 1-.654-.742c-.261-1.003-.567-2.847-.567-5.967 0-3.12.306-4.963.567-5.967a1.09 1.09 0 0 1 .655-.742C8.02 3.287 13.935 3.31 14 3.31c.066 0 5.978-.022 9.47 1.32a1.092 1.092 0 0 1 .654.742c.262 1.004.567 2.847.567 5.967 0 3.12-.305 4.964-.567 5.967Z" fill="#666"></path></svg></svg>